<?xml version="1.0" encoding="UTF-8" standalone="no"?>
<svg
   xmlns:osb="http://www.openswatchbook.org/uri/2009/osb"
   xmlns:dc="http://purl.org/dc/elements/1.1/"
   xmlns:cc="http://creativecommons.org/ns#"
   xmlns:rdf="http://www.w3.org/1999/02/22-rdf-syntax-ns#"
   xmlns:svg="http://www.w3.org/2000/svg"
   xmlns="http://www.w3.org/2000/svg"
   xmlns:sodipodi="http://sodipodi.sourceforge.net/DTD/sodipodi-0.dtd"
   xmlns:inkscape="http://www.inkscape.org/namespaces/inkscape"
   version="1.1"
   id="hghadhdc"
   preserveAspectRatio="xMidYMid meet"
   viewBox="0 0 196.53543 139.84252"
   sodipodi:docname="prm-stroke.svg"
   width="5.1999998cm"
   height="3.7cm"
   inkscape:version="0.92.4 5da689c313, 2019-01-14"
   inkscape:export-filename="/home/ldez/sources/experimental/hugo-temp/prm.svg.png"
   inkscape:export-xdpi="96"
   inkscape:export-ydpi="96">
  <sodipodi:namedview
     pagecolor="#ffffff"
     bordercolor="#666666"
     borderopacity="1"
     objecttolerance="10"
     gridtolerance="10"
     guidetolerance="10"
     inkscape:pageopacity="0"
     inkscape:pageshadow="2"
     inkscape:window-width="3840"
     inkscape:window-height="2110"
     id="namedview8"
     showgrid="false"
     units="cm"
     inkscape:zoom="7.9465333"
     inkscape:cx="17.756187"
     inkscape:cy="98.941789"
     inkscape:window-x="0"
     inkscape:window-y="50"
     inkscape:window-maximized="1"
     inkscape:current-layer="hghadhdc" />
  <metadata
     id="metadata10">
    <rdf:RDF>
      <cc:Work
         rdf:about="">
        <dc:format>image/svg+xml</dc:format>
        <dc:type
           rdf:resource="http://purl.org/dc/dcmitype/StillImage" />
        <dc:title></dc:title>
      </cc:Work>
    </rdf:RDF>
  </metadata>
  <defs
     id="SvgjsDefs1001">
    <linearGradient
       id="linearGradient2274"
       osb:paint="solid">
      <stop
         style="stop-color:#000000;stop-opacity:1;"
         offset="0"
         id="stop2272" />
    </linearGradient>
  </defs>
  <g
     featurekey="root"
     id="SvgjsG1007"
     style="fill:#265076"
     transform="matrix(2.8704658,0,0,2.8704658,104.25381,-77.036927)" />
  <g
     transform="matrix(3.9130368,0,0,3.9130368,6.937434,21.399604)"
     featurekey="text1"
     id="SvgjsG1008"
     style="fill:#ffffff;fill-opacity:1;stroke:#265076;stroke-opacity:1;stroke-width:1.02222397;stroke-miterlimit:4;stroke-dasharray:none;stroke-linecap:butt"
     inkscape:export-xdpi="96"
     inkscape:export-ydpi="96">
    <path
       id="path4"
       d="m 8.36,5 c 1.58,0 2.88,0.46 3.84,1.36 0.98,0.92 1.46,2.16 1.46,3.66 0,1.52 -0.48,2.74 -1.46,3.66 -0.96,0.9 -2.26,1.34 -3.84,1.34 H 4.54 v 4.08 c 0,0.38 -0.32,0.7 -0.7,0.7 H 2.32 c -0.38,0 -0.7,-0.32 -0.7,-0.7 v -6.2 c 0,-0.38 0.32,-0.7 0.7,-0.7 h 5.92 c 0.88,0 1.52,-0.18 1.92,-0.58 0.4,-0.36 0.58,-0.9 0.58,-1.6 0,-0.7 -0.18,-1.22 -0.58,-1.6 C 9.76,8.04 9.12,7.84 8.24,7.84 H 2.32 c -0.38,0 -0.7,-0.32 -0.7,-0.7 V 5.7 C 1.62,5.32 1.94,5 2.32,5 Z m 16.82,9.1 3.02,4.62 c 0.14,0.22 0.16,0.48 0.02,0.72 -0.12,0.22 -0.36,0.36 -0.6,0.36 H 25.8 c -0.24,0 -0.46,-0.12 -0.58,-0.32 l -3.04,-4.82 h -3.56 v 4.44 c 0,0.38 -0.32,0.7 -0.7,0.7 H 16.4 c -0.38,0 -0.7,-0.32 -0.7,-0.7 v -6.58 c 0,-0.38 0.32,-0.7 0.7,-0.7 h 6.16 c 1.16,0 1.94,-0.32 2.34,-1 C 25.04,10.6 25.1,10.28 25.1,9.9 25.1,9.24 24.9,8.78 24.48,8.42 24.04,8.02 23.42,7.84 22.64,7.84 H 16.4 c -0.38,0 -0.7,-0.32 -0.7,-0.7 V 5.7 C 15.7,5.32 16.02,5 16.4,5 h 6.42 c 1.54,0 2.8,0.44 3.74,1.32 0.98,0.88 1.46,2.08 1.46,3.58 0,1.94 -0.86,3.34 -2.5,4.06 -0.1,0.04 -0.22,0.1 -0.34,0.14 z M 44.36,5 c 0.38,0 0.7,0.32 0.7,0.7 v 13.4 c 0,0.38 -0.32,0.7 -0.7,0.7 h -1.52 c -0.4,0 -0.7,-0.32 -0.7,-0.7 v -9.04 l -3.7,4.76 c -0.14,0.16 -0.34,0.26 -0.56,0.26 v 0 c -0.22,0 -0.44,-0.1 -0.56,-0.28 L 30.76,6.12 C 30.6,5.92 30.58,5.62 30.7,5.4 30.82,5.16 31.06,5 31.32,5 h 1.76 c 0.22,0 0.42,0.1 0.56,0.28 l 4.24,5.6 4.14,-5.6 C 42.16,5.1 42.36,5 42.6,5 Z m -11.52,9.7 c 0.38,0 0.7,0.3 0.7,0.7 v 3.7 c 0,0.38 -0.32,0.7 -0.7,0.7 h -1.52 c -0.38,0 -0.7,-0.32 -0.7,-0.7 v -3.7 c 0,-0.4 0.32,-0.7 0.7,-0.7 z"
       style="fill:#ffffff;fill-opacity:1;stroke:#265076;stroke-opacity:1;stroke-width:1.02222397;stroke-miterlimit:4;stroke-dasharray:none;stroke-linecap:butt"
       inkscape:connector-curvature="0" />
  </g>
</svg>
